General
182 - I Miss You.mkv
Format                           : Matroska
File size                        : 57.4 MiB
Duration                         : 3mn 49s
Overall bit rate                 : 2 097 Kbps
Encoded date                     : UTC 2009-03-27 19:17:01
Writing application              : mkvmerge v2.2.0 ('Turn It On Again') built on Jul  1 2008 15:44:46
Writing library                  : libebml v0.7.7 + libmatroska v0.8.1
Cover                            : This video has been downloaded from Vuze.com using Azureus

Video
ID                               : 1
Format                           : AVC
Format/Info                      : Advanced Video Codec
Format profile                   : Main@L5.1
Format settings, CABAC           : Yes
Format settings, ReFrames        : 5 frames
Muxing mode                      : Container profile=Unknown@5.1
Codec ID                         : V_MPEG4/ISO/AVC
Duration                         : 3mn 49s
Bit rate                         : 1 895 Kbps
Nominal bit rate                 : 1 956 Kbps
Width                            : 1 056 pixels
Height                           : 720 pixels
Display aspect ratio             : 1.467
Frame rate                       : 29.970 fps
Resolution                       : 24 bits
Colorimetry                      : 4:2:0
Scan type                        : Progressive
Bits/(Pixel*Frame)               : 0.083
Stream size                      : 51.8 MiB (90%)
Writing library                  : x264 core 60 r0+892 ad1d7a4
Encoding settings                : cabac=1 / ref=5 / deblock=1:0:0 / analyse=0x1:0x131 / me=umh / subme=7 / brdo=0 / mixed_ref=0 / me_range=32 / chroma_me=1 / trellis=1 / 8x8dct=0 / cqm=0 / deadzone=21,11 / chroma_qp_offset=0 / threads=6 / nr=0 / decimate=1 / mbaff=0 / bframes=3 / b_pyramid=1 / b_adapt=1 / b_bias=0 / direct=3 / wpredb=0 / bime=0 / keyint=250 / keyint_min=25 / scenecut=40(pre) / rc=2pass / bitrate=1956 / ratetol=1.0 / rceq='blurCplx^(1-qComp)' / qcomp=1.00 / qpmin=10 / qpmax=51 / qpstep=4 / cplxblur=20.0 / qblur=0.5 / ip_ratio=1.40 / pb_ratio=1.30 / aq=2:1.00

Audio
ID                               : 2
Format                           : Vorbis
Format settings, Floor           : 1
Codec ID                         : A_VORBIS
Duration                         : 3mn 49s
Bit rate mode                    : Constant
Bit rate                         : 160 Kbps
Channel(s)                       : 2 channels
Sampling rate                    : 48.0 KHz
Stream size                      : 4.38 MiB (8%)
Writing library                  : libVorbis 1.2 (UTC 2007-06-22)
